G04 EAGLE Gerber RS-274X export*
G75*
%MOMM*%
%FSLAX34Y34*%
%LPD*%
%INBottom Copper*%
%IPPOS*%
%AMOC8*
5,1,8,0,0,1.08239X$1,22.5*%
G01*
G04 Define Apertures*
%ADD10C,1.524000*%
%ADD11R,2.540000X2.540000*%
%ADD12C,2.540000*%
%ADD13R,1.778000X1.778000*%
%ADD14C,1.778000*%
%ADD15C,0.609600*%
%ADD16C,0.756400*%
%ADD17C,1.270000*%
G36*
X643479Y12760D02*
X643729Y12932D01*
X643893Y13187D01*
X643944Y13462D01*
X643944Y132588D01*
X643884Y132885D01*
X643712Y133135D01*
X643457Y133299D01*
X643182Y133350D01*
X638102Y133350D01*
X638102Y163830D01*
X643182Y163830D01*
X643479Y163890D01*
X643729Y164062D01*
X643893Y164317D01*
X643944Y164592D01*
X643944Y323088D01*
X643884Y323385D01*
X643712Y323635D01*
X643457Y323799D01*
X643182Y323850D01*
X638102Y323850D01*
X638102Y354330D01*
X643182Y354330D01*
X643479Y354390D01*
X643729Y354562D01*
X643893Y354817D01*
X643944Y355092D01*
X643944Y513588D01*
X643884Y513885D01*
X643712Y514135D01*
X643457Y514299D01*
X643182Y514350D01*
X638102Y514350D01*
X638102Y544830D01*
X643182Y544830D01*
X643479Y544890D01*
X643729Y545062D01*
X643893Y545317D01*
X643944Y545592D01*
X643944Y704088D01*
X643884Y704385D01*
X643712Y704635D01*
X643457Y704799D01*
X643182Y704850D01*
X638102Y704850D01*
X638102Y735330D01*
X643182Y735330D01*
X643479Y735390D01*
X643729Y735562D01*
X643893Y735817D01*
X643944Y736092D01*
X643944Y894588D01*
X643884Y894885D01*
X643712Y895135D01*
X643457Y895299D01*
X643182Y895350D01*
X638102Y895350D01*
X638102Y925830D01*
X643182Y925830D01*
X643479Y925890D01*
X643729Y926062D01*
X643893Y926317D01*
X643944Y926592D01*
X643944Y1085088D01*
X643884Y1085385D01*
X643712Y1085635D01*
X643457Y1085799D01*
X643182Y1085850D01*
X638102Y1085850D01*
X638102Y1116330D01*
X643182Y1116330D01*
X643479Y1116390D01*
X643729Y1116562D01*
X643893Y1116817D01*
X643944Y1117092D01*
X643944Y1395478D01*
X643884Y1395775D01*
X643712Y1396025D01*
X643457Y1396189D01*
X643182Y1396240D01*
X12256Y1396240D01*
X11958Y1396180D01*
X11717Y1396017D01*
X10383Y1394683D01*
X10216Y1394430D01*
X10160Y1394144D01*
X10160Y13462D01*
X10220Y13165D01*
X10392Y12915D01*
X10647Y12751D01*
X10922Y12700D01*
X643182Y12700D01*
X643479Y12760D01*
G37*
%LPC*%
G36*
X607388Y1332853D02*
X607256Y1332865D01*
X606172Y1332865D01*
X603992Y1333449D01*
X603927Y1333464D01*
X600558Y1334058D01*
X592607Y1338648D01*
X590408Y1341269D01*
X590363Y1341318D01*
X588767Y1342914D01*
X588225Y1343852D01*
X588149Y1343961D01*
X586705Y1345682D01*
X585937Y1347792D01*
X585881Y1347913D01*
X585339Y1348851D01*
X584755Y1351032D01*
X584735Y1351095D01*
X583565Y1354309D01*
X583565Y1363491D01*
X584735Y1366705D01*
X584755Y1366768D01*
X585339Y1368949D01*
X585881Y1369887D01*
X585937Y1370008D01*
X586705Y1372118D01*
X588149Y1373839D01*
X588225Y1373948D01*
X588767Y1374886D01*
X590363Y1376482D01*
X590408Y1376531D01*
X592607Y1379152D01*
X600558Y1383742D01*
X603927Y1384336D01*
X603992Y1384351D01*
X606172Y1384935D01*
X607256Y1384935D01*
X607388Y1384947D01*
X609600Y1385337D01*
X611812Y1384947D01*
X611944Y1384935D01*
X613028Y1384935D01*
X615208Y1384351D01*
X615273Y1384336D01*
X618642Y1383742D01*
X626593Y1379152D01*
X628792Y1376531D01*
X628837Y1376482D01*
X630433Y1374886D01*
X630975Y1373948D01*
X631051Y1373839D01*
X632495Y1372118D01*
X633263Y1370008D01*
X633319Y1369887D01*
X633861Y1368949D01*
X634445Y1366768D01*
X634465Y1366705D01*
X635635Y1363491D01*
X635635Y1354309D01*
X634465Y1351095D01*
X634445Y1351032D01*
X633861Y1348851D01*
X633319Y1347913D01*
X633263Y1347792D01*
X632495Y1345682D01*
X631051Y1343961D01*
X630975Y1343852D01*
X630433Y1342914D01*
X628837Y1341318D01*
X628792Y1341269D01*
X626593Y1338648D01*
X618642Y1334058D01*
X615273Y1333464D01*
X615208Y1333449D01*
X613028Y1332865D01*
X611944Y1332865D01*
X611812Y1332853D01*
X609600Y1332463D01*
X607388Y1332853D01*
G37*
G36*
X48588Y1332853D02*
X48456Y1332865D01*
X47372Y1332865D01*
X45192Y1333449D01*
X45127Y1333464D01*
X41758Y1334058D01*
X33807Y1338648D01*
X31608Y1341269D01*
X31563Y1341318D01*
X29967Y1342914D01*
X29425Y1343852D01*
X29349Y1343961D01*
X27905Y1345682D01*
X27137Y1347792D01*
X27081Y1347913D01*
X26539Y1348851D01*
X25955Y1351032D01*
X25935Y1351095D01*
X24765Y1354309D01*
X24765Y1363491D01*
X25935Y1366705D01*
X25955Y1366768D01*
X26539Y1368949D01*
X27081Y1369887D01*
X27137Y1370008D01*
X27905Y1372118D01*
X29349Y1373839D01*
X29425Y1373948D01*
X29967Y1374886D01*
X31563Y1376482D01*
X31608Y1376531D01*
X33807Y1379152D01*
X41758Y1383742D01*
X45127Y1384336D01*
X45192Y1384351D01*
X47372Y1384935D01*
X48456Y1384935D01*
X48588Y1384947D01*
X50800Y1385337D01*
X53012Y1384947D01*
X53144Y1384935D01*
X54228Y1384935D01*
X56408Y1384351D01*
X56473Y1384336D01*
X59842Y1383742D01*
X67793Y1379152D01*
X69992Y1376531D01*
X70037Y1376482D01*
X71633Y1374886D01*
X72175Y1373948D01*
X72251Y1373839D01*
X73695Y1372118D01*
X74463Y1370008D01*
X74519Y1369887D01*
X75061Y1368949D01*
X75645Y1366768D01*
X75665Y1366705D01*
X76835Y1363491D01*
X76835Y1354309D01*
X75665Y1351095D01*
X75645Y1351032D01*
X75061Y1348851D01*
X74519Y1347913D01*
X74463Y1347792D01*
X73695Y1345682D01*
X72251Y1343961D01*
X72175Y1343852D01*
X71633Y1342914D01*
X70037Y1341318D01*
X69992Y1341269D01*
X67793Y1338648D01*
X59842Y1334058D01*
X56473Y1333464D01*
X56408Y1333449D01*
X54228Y1332865D01*
X53144Y1332865D01*
X53012Y1332853D01*
X50800Y1332463D01*
X48588Y1332853D01*
G37*
G36*
X478607Y336550D02*
X473005Y338870D01*
X472755Y339121D01*
X472502Y339288D01*
X472216Y339344D01*
X460112Y339344D01*
X455538Y341239D01*
X447750Y349027D01*
X447497Y349194D01*
X447211Y349250D01*
X446857Y349250D01*
X441255Y351570D01*
X436968Y355857D01*
X434648Y361459D01*
X434648Y361813D01*
X434588Y362110D01*
X434425Y362352D01*
X415207Y381570D01*
X413312Y386144D01*
X413312Y732282D01*
X413252Y732579D01*
X413080Y732829D01*
X412825Y732993D01*
X412550Y733044D01*
X159862Y733044D01*
X159565Y732984D01*
X159324Y732821D01*
X50952Y624449D01*
X46377Y622554D01*
X27825Y622554D01*
X27528Y622494D01*
X27278Y622322D01*
X27114Y622067D01*
X27064Y621768D01*
X27133Y621473D01*
X27313Y621228D01*
X27534Y621088D01*
X31875Y619290D01*
X35090Y616075D01*
X36830Y611874D01*
X36830Y610362D01*
X13970Y610362D01*
X13970Y611874D01*
X15710Y616075D01*
X18925Y619290D01*
X23266Y621088D01*
X23518Y621258D01*
X23683Y621512D01*
X23737Y621810D01*
X23669Y622106D01*
X23492Y622352D01*
X23233Y622509D01*
X22975Y622554D01*
X22924Y622554D01*
X18350Y624449D01*
X14849Y627950D01*
X12954Y632524D01*
X12954Y637476D01*
X14849Y642050D01*
X18350Y645551D01*
X23064Y647504D01*
X23316Y647674D01*
X23481Y647928D01*
X23535Y648226D01*
X23467Y648522D01*
X23290Y648768D01*
X23030Y648925D01*
X22773Y648970D01*
X15458Y648970D01*
X13970Y650458D01*
X13970Y670342D01*
X15458Y671830D01*
X35342Y671830D01*
X36830Y670342D01*
X36830Y650458D01*
X35119Y648747D01*
X34951Y648494D01*
X34896Y648196D01*
X34961Y647900D01*
X35136Y647652D01*
X35394Y647493D01*
X35658Y647446D01*
X38431Y647446D01*
X38728Y647506D01*
X38969Y647669D01*
X50831Y659531D01*
X50998Y659783D01*
X51054Y660069D01*
X51054Y1056576D01*
X52949Y1061150D01*
X53117Y1061318D01*
X53284Y1061571D01*
X53340Y1061857D01*
X53340Y1063741D01*
X54298Y1066054D01*
X54356Y1066345D01*
X54356Y1068619D01*
X55748Y1071980D01*
X66833Y1083064D01*
X67000Y1083317D01*
X67056Y1083603D01*
X67056Y1271819D01*
X68448Y1275180D01*
X71020Y1277752D01*
X74381Y1279144D01*
X78019Y1279144D01*
X81380Y1277752D01*
X83952Y1275180D01*
X85344Y1271819D01*
X85344Y1254165D01*
X85404Y1253868D01*
X85576Y1253618D01*
X85831Y1253454D01*
X86130Y1253403D01*
X86398Y1253461D01*
X87081Y1253744D01*
X90719Y1253744D01*
X94080Y1252352D01*
X96652Y1249780D01*
X98044Y1246419D01*
X98044Y1066345D01*
X98102Y1066054D01*
X99060Y1063741D01*
X99060Y1044459D01*
X97513Y1040725D01*
X94655Y1037867D01*
X90921Y1036320D01*
X86879Y1036320D01*
X83145Y1037867D01*
X80287Y1040725D01*
X78740Y1044459D01*
X78740Y1063741D01*
X79698Y1066054D01*
X79756Y1066345D01*
X79756Y1068285D01*
X79696Y1068582D01*
X79524Y1068832D01*
X79269Y1068996D01*
X78970Y1069046D01*
X78675Y1068977D01*
X78455Y1068824D01*
X73883Y1064252D01*
X73716Y1063999D01*
X73660Y1063713D01*
X73660Y1061857D01*
X73720Y1061560D01*
X73883Y1061318D01*
X74051Y1061150D01*
X75946Y1056576D01*
X75946Y686485D01*
X76006Y686188D01*
X76178Y685938D01*
X76433Y685775D01*
X76732Y685724D01*
X77027Y685794D01*
X77247Y685947D01*
X147341Y756041D01*
X151916Y757936D01*
X412550Y757936D01*
X412847Y757996D01*
X413097Y758168D01*
X413261Y758423D01*
X413312Y758698D01*
X413312Y1104836D01*
X415207Y1109410D01*
X434425Y1128628D01*
X434592Y1128881D01*
X434648Y1129167D01*
X434648Y1129521D01*
X436968Y1135123D01*
X441255Y1139410D01*
X446857Y1141730D01*
X452919Y1141730D01*
X458521Y1139410D01*
X462808Y1135123D01*
X465128Y1129521D01*
X465128Y1129167D01*
X465188Y1128870D01*
X465351Y1128628D01*
X467520Y1126459D01*
X467773Y1126292D01*
X468059Y1126236D01*
X472216Y1126236D01*
X472513Y1126296D01*
X472755Y1126459D01*
X473005Y1126710D01*
X478607Y1129030D01*
X484669Y1129030D01*
X490271Y1126710D01*
X494558Y1122423D01*
X496878Y1116821D01*
X496878Y1110759D01*
X494558Y1105157D01*
X490271Y1100870D01*
X484669Y1098550D01*
X478607Y1098550D01*
X473005Y1100870D01*
X472755Y1101121D01*
X472502Y1101288D01*
X472216Y1101344D01*
X460112Y1101344D01*
X455538Y1103239D01*
X450427Y1108350D01*
X450174Y1108517D01*
X449876Y1108573D01*
X449580Y1108508D01*
X449349Y1108350D01*
X438427Y1097428D01*
X438260Y1097175D01*
X438204Y1096889D01*
X438204Y1011198D01*
X438264Y1010901D01*
X438436Y1010651D01*
X438691Y1010487D01*
X438990Y1010437D01*
X439285Y1010506D01*
X439505Y1010659D01*
X441255Y1012410D01*
X446857Y1014730D01*
X452919Y1014730D01*
X458521Y1012410D01*
X462808Y1008123D01*
X465128Y1002521D01*
X465128Y996459D01*
X462808Y990857D01*
X458521Y986570D01*
X452919Y984250D01*
X446857Y984250D01*
X441255Y986570D01*
X439505Y988321D01*
X439252Y988488D01*
X438954Y988544D01*
X438658Y988479D01*
X438410Y988303D01*
X438251Y988045D01*
X438204Y987782D01*
X438204Y952891D01*
X438264Y952594D01*
X438427Y952352D01*
X441330Y949450D01*
X441582Y949282D01*
X441880Y949227D01*
X442160Y949285D01*
X446857Y951230D01*
X452919Y951230D01*
X458521Y948910D01*
X462808Y944623D01*
X465128Y939021D01*
X465128Y938667D01*
X465188Y938370D01*
X465351Y938128D01*
X467520Y935959D01*
X467773Y935792D01*
X468059Y935736D01*
X472216Y935736D01*
X472513Y935796D01*
X472755Y935959D01*
X473005Y936210D01*
X478607Y938530D01*
X484669Y938530D01*
X490271Y936210D01*
X494558Y931923D01*
X496878Y926321D01*
X496878Y920259D01*
X494558Y914657D01*
X490271Y910370D01*
X484669Y908050D01*
X478607Y908050D01*
X473005Y910370D01*
X472755Y910621D01*
X472502Y910788D01*
X472216Y910844D01*
X460112Y910844D01*
X455538Y912739D01*
X447750Y920527D01*
X447497Y920694D01*
X447211Y920750D01*
X446857Y920750D01*
X441255Y923070D01*
X441005Y923321D01*
X440752Y923488D01*
X440466Y923544D01*
X439611Y923544D01*
X439314Y923484D01*
X439072Y923321D01*
X438427Y922676D01*
X438260Y922423D01*
X438204Y922137D01*
X438204Y820698D01*
X438264Y820401D01*
X438436Y820151D01*
X438691Y819987D01*
X438990Y819937D01*
X439285Y820006D01*
X439505Y820159D01*
X441255Y821910D01*
X446857Y824230D01*
X452919Y824230D01*
X458521Y821910D01*
X462808Y817623D01*
X465128Y812021D01*
X465128Y805959D01*
X462808Y800357D01*
X458521Y796070D01*
X452919Y793750D01*
X446857Y793750D01*
X441255Y796070D01*
X439505Y797821D01*
X439252Y797988D01*
X438954Y798044D01*
X438658Y797979D01*
X438410Y797803D01*
X438251Y797545D01*
X438204Y797282D01*
X438204Y758698D01*
X438264Y758401D01*
X438436Y758151D01*
X438691Y757987D01*
X438966Y757936D01*
X440466Y757936D01*
X440763Y757996D01*
X441005Y758159D01*
X441255Y758410D01*
X446857Y760730D01*
X452919Y760730D01*
X458521Y758410D01*
X462808Y754123D01*
X465128Y748521D01*
X465128Y748167D01*
X465188Y747870D01*
X465351Y747628D01*
X467520Y745459D01*
X467773Y745292D01*
X468059Y745236D01*
X472216Y745236D01*
X472513Y745296D01*
X472755Y745459D01*
X473005Y745710D01*
X478607Y748030D01*
X484669Y748030D01*
X490271Y745710D01*
X494558Y741423D01*
X496878Y735821D01*
X496878Y729759D01*
X494558Y724157D01*
X490271Y719870D01*
X484669Y717550D01*
X478607Y717550D01*
X473005Y719870D01*
X472755Y720121D01*
X472502Y720288D01*
X472216Y720344D01*
X460112Y720344D01*
X455538Y722239D01*
X447750Y730027D01*
X447497Y730194D01*
X447211Y730250D01*
X446857Y730250D01*
X441255Y732570D01*
X441005Y732821D01*
X440752Y732988D01*
X440466Y733044D01*
X439611Y733044D01*
X439314Y732984D01*
X439072Y732821D01*
X438427Y732176D01*
X438260Y731923D01*
X438204Y731637D01*
X438204Y630198D01*
X438264Y629901D01*
X438436Y629651D01*
X438691Y629487D01*
X438990Y629437D01*
X439285Y629506D01*
X439505Y629659D01*
X441255Y631410D01*
X446857Y633730D01*
X452919Y633730D01*
X458521Y631410D01*
X462808Y627123D01*
X465128Y621521D01*
X465128Y615459D01*
X462808Y609857D01*
X458521Y605570D01*
X452919Y603250D01*
X446857Y603250D01*
X441255Y605570D01*
X439505Y607321D01*
X439252Y607488D01*
X438954Y607544D01*
X438658Y607479D01*
X438410Y607303D01*
X438251Y607045D01*
X438204Y606782D01*
X438204Y568198D01*
X438264Y567901D01*
X438436Y567651D01*
X438691Y567487D01*
X438966Y567436D01*
X440466Y567436D01*
X440763Y567496D01*
X441005Y567659D01*
X441255Y567910D01*
X446857Y570230D01*
X452919Y570230D01*
X458521Y567910D01*
X462808Y563623D01*
X465128Y558021D01*
X465128Y557667D01*
X465188Y557370D01*
X465351Y557128D01*
X467520Y554959D01*
X467773Y554792D01*
X468059Y554736D01*
X472216Y554736D01*
X472513Y554796D01*
X472755Y554959D01*
X473005Y555210D01*
X478607Y557530D01*
X484669Y557530D01*
X490271Y555210D01*
X494558Y550923D01*
X496878Y545321D01*
X496878Y539259D01*
X494558Y533657D01*
X490271Y529370D01*
X484669Y527050D01*
X478607Y527050D01*
X473005Y529370D01*
X472755Y529621D01*
X472502Y529788D01*
X472216Y529844D01*
X460112Y529844D01*
X455538Y531739D01*
X447750Y539527D01*
X447497Y539694D01*
X447211Y539750D01*
X446857Y539750D01*
X441255Y542070D01*
X441005Y542321D01*
X440752Y542488D01*
X440466Y542544D01*
X439611Y542544D01*
X439314Y542484D01*
X439072Y542321D01*
X438427Y541676D01*
X438260Y541423D01*
X438204Y541137D01*
X438204Y439698D01*
X438264Y439401D01*
X438436Y439151D01*
X438691Y438987D01*
X438990Y438937D01*
X439285Y439006D01*
X439505Y439159D01*
X441255Y440910D01*
X446857Y443230D01*
X452919Y443230D01*
X458521Y440910D01*
X462808Y436623D01*
X465128Y431021D01*
X465128Y424959D01*
X462808Y419357D01*
X458521Y415070D01*
X452919Y412750D01*
X446857Y412750D01*
X441255Y415070D01*
X439505Y416821D01*
X439252Y416988D01*
X438954Y417044D01*
X438658Y416979D01*
X438410Y416803D01*
X438251Y416545D01*
X438204Y416282D01*
X438204Y394091D01*
X438264Y393794D01*
X438427Y393552D01*
X452026Y379953D01*
X452279Y379786D01*
X452565Y379730D01*
X452919Y379730D01*
X458521Y377410D01*
X462808Y373123D01*
X465128Y367521D01*
X465128Y367167D01*
X465188Y366870D01*
X465351Y366628D01*
X467520Y364459D01*
X467773Y364292D01*
X468059Y364236D01*
X472216Y364236D01*
X472513Y364296D01*
X472755Y364459D01*
X473005Y364710D01*
X478607Y367030D01*
X484669Y367030D01*
X490271Y364710D01*
X494558Y360423D01*
X496878Y354821D01*
X496878Y348759D01*
X494558Y343157D01*
X490271Y338870D01*
X484669Y336550D01*
X478607Y336550D01*
G37*
G36*
X577650Y1127252D02*
X577650Y1141730D01*
X579919Y1141730D01*
X585521Y1139410D01*
X589808Y1135123D01*
X592128Y1129521D01*
X592128Y1127252D01*
X577650Y1127252D01*
G37*
G36*
X510357Y1111250D02*
X504755Y1113570D01*
X500468Y1117857D01*
X498148Y1123459D01*
X498148Y1129521D01*
X500468Y1135123D01*
X504755Y1139410D01*
X510357Y1141730D01*
X516419Y1141730D01*
X522021Y1139410D01*
X526308Y1135123D01*
X528628Y1129521D01*
X528628Y1123459D01*
X526308Y1117857D01*
X522021Y1113570D01*
X516419Y1111250D01*
X510357Y1111250D01*
G37*
G36*
X561648Y1127252D02*
X561648Y1129521D01*
X563968Y1135123D01*
X568255Y1139410D01*
X573857Y1141730D01*
X576126Y1141730D01*
X576126Y1127252D01*
X561648Y1127252D01*
G37*
G36*
X609400Y1098550D02*
X609400Y1129030D01*
X611669Y1129030D01*
X617271Y1126710D01*
X621558Y1122423D01*
X623887Y1116800D01*
X624056Y1116549D01*
X624310Y1116383D01*
X624591Y1116330D01*
X636578Y1116330D01*
X636578Y1101852D01*
X622100Y1101852D01*
X622100Y1103860D01*
X622040Y1104157D01*
X621868Y1104407D01*
X621613Y1104571D01*
X621314Y1104621D01*
X621019Y1104552D01*
X620799Y1104399D01*
X617271Y1100870D01*
X611669Y1098550D01*
X609400Y1098550D01*
G37*
G36*
X593398Y1114552D02*
X593398Y1116821D01*
X595718Y1122423D01*
X600005Y1126710D01*
X605607Y1129030D01*
X607876Y1129030D01*
X607876Y1114552D01*
X593398Y1114552D01*
G37*
G36*
X542107Y1098550D02*
X536505Y1100870D01*
X532218Y1105157D01*
X529898Y1110759D01*
X529898Y1116821D01*
X532218Y1122423D01*
X536505Y1126710D01*
X542107Y1129030D01*
X548169Y1129030D01*
X553771Y1126710D01*
X558058Y1122423D01*
X560378Y1116821D01*
X560378Y1110759D01*
X558058Y1105157D01*
X553771Y1100870D01*
X548169Y1098550D01*
X542107Y1098550D01*
G37*
G36*
X573857Y1111250D02*
X568255Y1113570D01*
X563968Y1117857D01*
X561648Y1123459D01*
X561648Y1125728D01*
X576126Y1125728D01*
X576126Y1111250D01*
X573857Y1111250D01*
G37*
G36*
X577650Y1111250D02*
X577650Y1125728D01*
X592128Y1125728D01*
X592128Y1123459D01*
X589808Y1117857D01*
X585521Y1113570D01*
X579919Y1111250D01*
X577650Y1111250D01*
G37*
G36*
X605607Y1098550D02*
X600005Y1100870D01*
X595718Y1105157D01*
X593398Y1110759D01*
X593398Y1113028D01*
X607876Y1113028D01*
X607876Y1098550D01*
X605607Y1098550D01*
G37*
G36*
X623588Y1085850D02*
X622100Y1087338D01*
X622100Y1100328D01*
X636578Y1100328D01*
X636578Y1085850D01*
X623588Y1085850D01*
G37*
G36*
X27940Y1054862D02*
X27940Y1063741D01*
X29487Y1067475D01*
X32345Y1070333D01*
X36079Y1071880D01*
X37338Y1071880D01*
X37338Y1054862D01*
X27940Y1054862D01*
G37*
G36*
X38862Y1054862D02*
X38862Y1071880D01*
X40121Y1071880D01*
X43855Y1070333D01*
X46713Y1067475D01*
X48260Y1063741D01*
X48260Y1054862D01*
X38862Y1054862D01*
G37*
G36*
X112279Y1036320D02*
X108545Y1037867D01*
X105687Y1040725D01*
X104140Y1044459D01*
X104140Y1063741D01*
X105687Y1067475D01*
X108545Y1070333D01*
X112279Y1071880D01*
X116321Y1071880D01*
X120055Y1070333D01*
X122913Y1067475D01*
X124460Y1063741D01*
X124460Y1044459D01*
X122913Y1040725D01*
X120055Y1037867D01*
X116321Y1036320D01*
X112279Y1036320D01*
G37*
G36*
X36079Y1036320D02*
X32345Y1037867D01*
X29487Y1040725D01*
X27940Y1044459D01*
X27940Y1053338D01*
X37338Y1053338D01*
X37338Y1036320D01*
X36079Y1036320D01*
G37*
G36*
X38862Y1036320D02*
X38862Y1053338D01*
X48260Y1053338D01*
X48260Y1044459D01*
X46713Y1040725D01*
X43855Y1037867D01*
X40121Y1036320D01*
X38862Y1036320D01*
G37*
G36*
X510357Y984250D02*
X504755Y986570D01*
X500468Y990857D01*
X498148Y996459D01*
X498148Y1002521D01*
X500468Y1008123D01*
X504755Y1012410D01*
X510357Y1014730D01*
X516419Y1014730D01*
X522021Y1012410D01*
X526308Y1008123D01*
X528628Y1002521D01*
X528628Y996459D01*
X526308Y990857D01*
X522021Y986570D01*
X516419Y984250D01*
X510357Y984250D01*
G37*
G36*
X573857Y984250D02*
X568255Y986570D01*
X563968Y990857D01*
X561648Y996459D01*
X561648Y1002521D01*
X563968Y1008123D01*
X568255Y1012410D01*
X573857Y1014730D01*
X579919Y1014730D01*
X585521Y1012410D01*
X589808Y1008123D01*
X592128Y1002521D01*
X592128Y996459D01*
X589808Y990857D01*
X585521Y986570D01*
X579919Y984250D01*
X573857Y984250D01*
G37*
G36*
X605607Y971550D02*
X600005Y973870D01*
X595718Y978157D01*
X593398Y983759D01*
X593398Y989821D01*
X595718Y995423D01*
X600005Y999710D01*
X605607Y1002030D01*
X611669Y1002030D01*
X617271Y999710D01*
X621558Y995423D01*
X623878Y989821D01*
X623878Y983759D01*
X621558Y978157D01*
X617271Y973870D01*
X611669Y971550D01*
X605607Y971550D01*
G37*
G36*
X542107Y971550D02*
X536505Y973870D01*
X532218Y978157D01*
X529898Y983759D01*
X529898Y989821D01*
X532218Y995423D01*
X536505Y999710D01*
X542107Y1002030D01*
X548169Y1002030D01*
X553771Y999710D01*
X558058Y995423D01*
X560378Y989821D01*
X560378Y983759D01*
X558058Y978157D01*
X553771Y973870D01*
X548169Y971550D01*
X542107Y971550D01*
G37*
G36*
X478607Y971550D02*
X473005Y973870D01*
X468718Y978157D01*
X466398Y983759D01*
X466398Y989821D01*
X468718Y995423D01*
X473005Y999710D01*
X478607Y1002030D01*
X484669Y1002030D01*
X490271Y999710D01*
X494558Y995423D01*
X496878Y989821D01*
X496878Y983759D01*
X494558Y978157D01*
X490271Y973870D01*
X484669Y971550D01*
X478607Y971550D01*
G37*
G36*
X510357Y920750D02*
X504755Y923070D01*
X500468Y927357D01*
X498148Y932959D01*
X498148Y939021D01*
X500468Y944623D01*
X504755Y948910D01*
X510357Y951230D01*
X516419Y951230D01*
X522021Y948910D01*
X526308Y944623D01*
X528628Y939021D01*
X528628Y932959D01*
X526308Y927357D01*
X522021Y923070D01*
X516419Y920750D01*
X510357Y920750D01*
G37*
G36*
X561648Y936752D02*
X561648Y939021D01*
X563968Y944623D01*
X568255Y948910D01*
X573857Y951230D01*
X576126Y951230D01*
X576126Y936752D01*
X561648Y936752D01*
G37*
G36*
X577650Y936752D02*
X577650Y951230D01*
X579919Y951230D01*
X585521Y948910D01*
X589808Y944623D01*
X592128Y939021D01*
X592128Y936752D01*
X577650Y936752D01*
G37*
G36*
X542107Y908050D02*
X536505Y910370D01*
X532218Y914657D01*
X529898Y920259D01*
X529898Y926321D01*
X532218Y931923D01*
X536505Y936210D01*
X542107Y938530D01*
X548169Y938530D01*
X553771Y936210D01*
X558058Y931923D01*
X560378Y926321D01*
X560378Y920259D01*
X558058Y914657D01*
X553771Y910370D01*
X548169Y908050D01*
X542107Y908050D01*
G37*
G36*
X593398Y924052D02*
X593398Y926321D01*
X595718Y931923D01*
X600005Y936210D01*
X605607Y938530D01*
X607876Y938530D01*
X607876Y924052D01*
X593398Y924052D01*
G37*
G36*
X609400Y908050D02*
X609400Y938530D01*
X611669Y938530D01*
X617271Y936210D01*
X621558Y931923D01*
X623887Y926300D01*
X624056Y926049D01*
X624310Y925883D01*
X624591Y925830D01*
X636578Y925830D01*
X636578Y911352D01*
X622100Y911352D01*
X622100Y913360D01*
X622040Y913657D01*
X621868Y913907D01*
X621613Y914071D01*
X621314Y914121D01*
X621019Y914052D01*
X620799Y913899D01*
X617271Y910370D01*
X611669Y908050D01*
X609400Y908050D01*
G37*
G36*
X573857Y920750D02*
X568255Y923070D01*
X563968Y927357D01*
X561648Y932959D01*
X561648Y935228D01*
X576126Y935228D01*
X576126Y920750D01*
X573857Y920750D01*
G37*
G36*
X577650Y920750D02*
X577650Y935228D01*
X592128Y935228D01*
X592128Y932959D01*
X589808Y927357D01*
X585521Y923070D01*
X579919Y920750D01*
X577650Y920750D01*
G37*
G36*
X605607Y908050D02*
X600005Y910370D01*
X595718Y914657D01*
X593398Y920259D01*
X593398Y922528D01*
X607876Y922528D01*
X607876Y908050D01*
X605607Y908050D01*
G37*
G36*
X623588Y895350D02*
X622100Y896838D01*
X622100Y909828D01*
X636578Y909828D01*
X636578Y895350D01*
X623588Y895350D01*
G37*
G36*
X573857Y793750D02*
X568255Y796070D01*
X563968Y800357D01*
X561648Y805959D01*
X561648Y812021D01*
X563968Y817623D01*
X568255Y821910D01*
X573857Y824230D01*
X579919Y824230D01*
X585521Y821910D01*
X589808Y817623D01*
X592128Y812021D01*
X592128Y805959D01*
X589808Y800357D01*
X585521Y796070D01*
X579919Y793750D01*
X573857Y793750D01*
G37*
G36*
X510357Y793750D02*
X504755Y796070D01*
X500468Y800357D01*
X498148Y805959D01*
X498148Y812021D01*
X500468Y817623D01*
X504755Y821910D01*
X510357Y824230D01*
X516419Y824230D01*
X522021Y821910D01*
X526308Y817623D01*
X528628Y812021D01*
X528628Y805959D01*
X526308Y800357D01*
X522021Y796070D01*
X516419Y793750D01*
X510357Y793750D01*
G37*
G36*
X542107Y781050D02*
X536505Y783370D01*
X532218Y787657D01*
X529898Y793259D01*
X529898Y799321D01*
X532218Y804923D01*
X536505Y809210D01*
X542107Y811530D01*
X548169Y811530D01*
X553771Y809210D01*
X558058Y804923D01*
X560378Y799321D01*
X560378Y793259D01*
X558058Y787657D01*
X553771Y783370D01*
X548169Y781050D01*
X542107Y781050D01*
G37*
G36*
X478607Y781050D02*
X473005Y783370D01*
X468718Y787657D01*
X466398Y793259D01*
X466398Y799321D01*
X468718Y804923D01*
X473005Y809210D01*
X478607Y811530D01*
X484669Y811530D01*
X490271Y809210D01*
X494558Y804923D01*
X496878Y799321D01*
X496878Y793259D01*
X494558Y787657D01*
X490271Y783370D01*
X484669Y781050D01*
X478607Y781050D01*
G37*
G36*
X605607Y781050D02*
X600005Y783370D01*
X595718Y787657D01*
X593398Y793259D01*
X593398Y799321D01*
X595718Y804923D01*
X600005Y809210D01*
X605607Y811530D01*
X611669Y811530D01*
X617271Y809210D01*
X621558Y804923D01*
X623878Y799321D01*
X623878Y793259D01*
X621558Y787657D01*
X617271Y783370D01*
X611669Y781050D01*
X605607Y781050D01*
G37*
G36*
X561648Y746252D02*
X561648Y748521D01*
X563968Y754123D01*
X568255Y758410D01*
X573857Y760730D01*
X576126Y760730D01*
X576126Y746252D01*
X561648Y746252D01*
G37*
G36*
X510357Y730250D02*
X504755Y732570D01*
X500468Y736857D01*
X498148Y742459D01*
X498148Y748521D01*
X500468Y754123D01*
X504755Y758410D01*
X510357Y760730D01*
X516419Y760730D01*
X522021Y758410D01*
X526308Y754123D01*
X528628Y748521D01*
X528628Y742459D01*
X526308Y736857D01*
X522021Y732570D01*
X516419Y730250D01*
X510357Y730250D01*
G37*
G36*
X577650Y746252D02*
X577650Y760730D01*
X579919Y760730D01*
X585521Y758410D01*
X589808Y754123D01*
X592128Y748521D01*
X592128Y746252D01*
X577650Y746252D01*
G37*
G36*
X542107Y717550D02*
X536505Y719870D01*
X532218Y724157D01*
X529898Y729759D01*
X529898Y735821D01*
X532218Y741423D01*
X536505Y745710D01*
X542107Y748030D01*
X548169Y748030D01*
X553771Y745710D01*
X558058Y741423D01*
X560378Y735821D01*
X560378Y729759D01*
X558058Y724157D01*
X553771Y719870D01*
X548169Y717550D01*
X542107Y717550D01*
G37*
G36*
X593398Y733552D02*
X593398Y735821D01*
X595718Y741423D01*
X600005Y745710D01*
X605607Y748030D01*
X607876Y748030D01*
X607876Y733552D01*
X593398Y733552D01*
G37*
G36*
X609400Y717550D02*
X609400Y748030D01*
X611669Y748030D01*
X617271Y745710D01*
X621558Y741423D01*
X623887Y735800D01*
X624056Y735549D01*
X624310Y735383D01*
X624591Y735330D01*
X636578Y735330D01*
X636578Y720852D01*
X622100Y720852D01*
X622100Y722860D01*
X622040Y723157D01*
X621868Y723407D01*
X621613Y723571D01*
X621314Y723621D01*
X621019Y723552D01*
X620799Y723399D01*
X617271Y719870D01*
X611669Y717550D01*
X609400Y717550D01*
G37*
G36*
X577650Y730250D02*
X577650Y744728D01*
X592128Y744728D01*
X592128Y742459D01*
X589808Y736857D01*
X585521Y732570D01*
X579919Y730250D01*
X577650Y730250D01*
G37*
G36*
X573857Y730250D02*
X568255Y732570D01*
X563968Y736857D01*
X561648Y742459D01*
X561648Y744728D01*
X576126Y744728D01*
X576126Y730250D01*
X573857Y730250D01*
G37*
G36*
X605607Y717550D02*
X600005Y719870D01*
X595718Y724157D01*
X593398Y729759D01*
X593398Y732028D01*
X607876Y732028D01*
X607876Y717550D01*
X605607Y717550D01*
G37*
G36*
X623588Y704850D02*
X622100Y706338D01*
X622100Y719328D01*
X636578Y719328D01*
X636578Y704850D01*
X623588Y704850D01*
G37*
G36*
X269458Y648970D02*
X267970Y650458D01*
X267970Y670342D01*
X269458Y671830D01*
X289342Y671830D01*
X290830Y670342D01*
X290830Y650458D01*
X289342Y648970D01*
X269458Y648970D01*
G37*
G36*
X277126Y623570D02*
X272925Y625310D01*
X269710Y628525D01*
X267970Y632726D01*
X267970Y637274D01*
X269710Y641475D01*
X272925Y644690D01*
X277126Y646430D01*
X281674Y646430D01*
X285875Y644690D01*
X289090Y641475D01*
X290830Y637274D01*
X290830Y632726D01*
X289090Y628525D01*
X285875Y625310D01*
X281674Y623570D01*
X277126Y623570D01*
G37*
G36*
X573857Y603250D02*
X568255Y605570D01*
X563968Y609857D01*
X561648Y615459D01*
X561648Y621521D01*
X563968Y627123D01*
X568255Y631410D01*
X573857Y633730D01*
X579919Y633730D01*
X585521Y631410D01*
X589808Y627123D01*
X592128Y621521D01*
X592128Y615459D01*
X589808Y609857D01*
X585521Y605570D01*
X579919Y603250D01*
X573857Y603250D01*
G37*
G36*
X510357Y603250D02*
X504755Y605570D01*
X500468Y609857D01*
X498148Y615459D01*
X498148Y621521D01*
X500468Y627123D01*
X504755Y631410D01*
X510357Y633730D01*
X516419Y633730D01*
X522021Y631410D01*
X526308Y627123D01*
X528628Y621521D01*
X528628Y615459D01*
X526308Y609857D01*
X522021Y605570D01*
X516419Y603250D01*
X510357Y603250D01*
G37*
G36*
X478607Y590550D02*
X473005Y592870D01*
X468718Y597157D01*
X466398Y602759D01*
X466398Y608821D01*
X468718Y614423D01*
X473005Y618710D01*
X478607Y621030D01*
X484669Y621030D01*
X490271Y618710D01*
X494558Y614423D01*
X496878Y608821D01*
X496878Y602759D01*
X494558Y597157D01*
X490271Y592870D01*
X484669Y590550D01*
X478607Y590550D01*
G37*
G36*
X277126Y598170D02*
X272925Y599910D01*
X269710Y603125D01*
X267970Y607326D01*
X267970Y611874D01*
X269710Y616075D01*
X272925Y619290D01*
X277126Y621030D01*
X281674Y621030D01*
X285875Y619290D01*
X289090Y616075D01*
X290830Y611874D01*
X290830Y607326D01*
X289090Y603125D01*
X285875Y599910D01*
X281674Y598170D01*
X277126Y598170D01*
G37*
G36*
X542107Y590550D02*
X536505Y592870D01*
X532218Y597157D01*
X529898Y602759D01*
X529898Y608821D01*
X532218Y614423D01*
X536505Y618710D01*
X542107Y621030D01*
X548169Y621030D01*
X553771Y618710D01*
X558058Y614423D01*
X560378Y608821D01*
X560378Y602759D01*
X558058Y597157D01*
X553771Y592870D01*
X548169Y590550D01*
X542107Y590550D01*
G37*
G36*
X605607Y590550D02*
X600005Y592870D01*
X595718Y597157D01*
X593398Y602759D01*
X593398Y608821D01*
X595718Y614423D01*
X600005Y618710D01*
X605607Y621030D01*
X611669Y621030D01*
X617271Y618710D01*
X621558Y614423D01*
X623878Y608821D01*
X623878Y602759D01*
X621558Y597157D01*
X617271Y592870D01*
X611669Y590550D01*
X605607Y590550D01*
G37*
G36*
X26162Y598170D02*
X26162Y608838D01*
X36830Y608838D01*
X36830Y607326D01*
X35090Y603125D01*
X31875Y599910D01*
X27674Y598170D01*
X26162Y598170D01*
G37*
G36*
X23126Y598170D02*
X18925Y599910D01*
X15710Y603125D01*
X13970Y607326D01*
X13970Y608838D01*
X24638Y608838D01*
X24638Y598170D01*
X23126Y598170D01*
G37*
G36*
X277126Y572770D02*
X272925Y574510D01*
X269710Y577725D01*
X267970Y581926D01*
X267970Y586474D01*
X269710Y590675D01*
X272925Y593890D01*
X277126Y595630D01*
X281674Y595630D01*
X285875Y593890D01*
X289090Y590675D01*
X290830Y586474D01*
X290830Y581926D01*
X289090Y577725D01*
X285875Y574510D01*
X281674Y572770D01*
X277126Y572770D01*
G37*
G36*
X23126Y572770D02*
X18925Y574510D01*
X15710Y577725D01*
X13970Y581926D01*
X13970Y586474D01*
X15710Y590675D01*
X18925Y593890D01*
X23126Y595630D01*
X27674Y595630D01*
X31875Y593890D01*
X35090Y590675D01*
X36830Y586474D01*
X36830Y581926D01*
X35090Y577725D01*
X31875Y574510D01*
X27674Y572770D01*
X23126Y572770D01*
G37*
G36*
X510357Y539750D02*
X504755Y542070D01*
X500468Y546357D01*
X498148Y551959D01*
X498148Y558021D01*
X500468Y563623D01*
X504755Y567910D01*
X510357Y570230D01*
X516419Y570230D01*
X522021Y567910D01*
X526308Y563623D01*
X528628Y558021D01*
X528628Y551959D01*
X526308Y546357D01*
X522021Y542070D01*
X516419Y539750D01*
X510357Y539750D01*
G37*
G36*
X577650Y555752D02*
X577650Y570230D01*
X579919Y570230D01*
X585521Y567910D01*
X589808Y563623D01*
X592128Y558021D01*
X592128Y555752D01*
X577650Y555752D01*
G37*
G36*
X23126Y547370D02*
X18925Y549110D01*
X15710Y552325D01*
X13970Y556526D01*
X13970Y561074D01*
X15710Y565275D01*
X18925Y568490D01*
X23126Y570230D01*
X27674Y570230D01*
X31875Y568490D01*
X35090Y565275D01*
X36830Y561074D01*
X36830Y556526D01*
X35090Y552325D01*
X31875Y549110D01*
X27674Y547370D01*
X23126Y547370D01*
G37*
G36*
X277126Y547370D02*
X272925Y549110D01*
X269710Y552325D01*
X267970Y556526D01*
X267970Y561074D01*
X269710Y565275D01*
X272925Y568490D01*
X277126Y570230D01*
X281674Y570230D01*
X285875Y568490D01*
X289090Y565275D01*
X290830Y561074D01*
X290830Y556526D01*
X289090Y552325D01*
X285875Y549110D01*
X281674Y547370D01*
X277126Y547370D01*
G37*
G36*
X561648Y555752D02*
X561648Y558021D01*
X563968Y563623D01*
X568255Y567910D01*
X573857Y570230D01*
X576126Y570230D01*
X576126Y555752D01*
X561648Y555752D01*
G37*
G36*
X542107Y527050D02*
X536505Y529370D01*
X532218Y533657D01*
X529898Y539259D01*
X529898Y545321D01*
X532218Y550923D01*
X536505Y555210D01*
X542107Y557530D01*
X548169Y557530D01*
X553771Y555210D01*
X558058Y550923D01*
X560378Y545321D01*
X560378Y539259D01*
X558058Y533657D01*
X553771Y529370D01*
X548169Y527050D01*
X542107Y527050D01*
G37*
G36*
X593398Y543052D02*
X593398Y545321D01*
X595718Y550923D01*
X600005Y555210D01*
X605607Y557530D01*
X607876Y557530D01*
X607876Y543052D01*
X593398Y543052D01*
G37*
G36*
X609400Y527050D02*
X609400Y557530D01*
X611669Y557530D01*
X617271Y555210D01*
X621558Y550923D01*
X623887Y545300D01*
X624056Y545049D01*
X624310Y544883D01*
X624591Y544830D01*
X636578Y544830D01*
X636578Y530352D01*
X622100Y530352D01*
X622100Y532360D01*
X622040Y532657D01*
X621868Y532907D01*
X621613Y533071D01*
X621314Y533121D01*
X621019Y533052D01*
X620799Y532899D01*
X617271Y529370D01*
X611669Y527050D01*
X609400Y527050D01*
G37*
G36*
X577650Y539750D02*
X577650Y554228D01*
X592128Y554228D01*
X592128Y551959D01*
X589808Y546357D01*
X585521Y542070D01*
X579919Y539750D01*
X577650Y539750D01*
G37*
G36*
X573857Y539750D02*
X568255Y542070D01*
X563968Y546357D01*
X561648Y551959D01*
X561648Y554228D01*
X576126Y554228D01*
X576126Y539750D01*
X573857Y539750D01*
G37*
G36*
X277126Y521970D02*
X272925Y523710D01*
X269710Y526925D01*
X267970Y531126D01*
X267970Y535674D01*
X269710Y539875D01*
X272925Y543090D01*
X277126Y544830D01*
X281674Y544830D01*
X285875Y543090D01*
X289090Y539875D01*
X290830Y535674D01*
X290830Y531126D01*
X289090Y526925D01*
X285875Y523710D01*
X281674Y521970D01*
X277126Y521970D01*
G37*
G36*
X23126Y521970D02*
X18925Y523710D01*
X15710Y526925D01*
X13970Y531126D01*
X13970Y535674D01*
X15710Y539875D01*
X18925Y543090D01*
X23126Y544830D01*
X27674Y544830D01*
X31875Y543090D01*
X35090Y539875D01*
X36830Y535674D01*
X36830Y531126D01*
X35090Y526925D01*
X31875Y523710D01*
X27674Y521970D01*
X23126Y521970D01*
G37*
G36*
X605607Y527050D02*
X600005Y529370D01*
X595718Y533657D01*
X593398Y539259D01*
X593398Y541528D01*
X607876Y541528D01*
X607876Y527050D01*
X605607Y527050D01*
G37*
G36*
X623588Y514350D02*
X622100Y515838D01*
X622100Y528828D01*
X636578Y528828D01*
X636578Y514350D01*
X623588Y514350D01*
G37*
G36*
X277126Y496570D02*
X272925Y498310D01*
X269710Y501525D01*
X267970Y505726D01*
X267970Y510274D01*
X269710Y514475D01*
X272925Y517690D01*
X277126Y519430D01*
X281674Y519430D01*
X285875Y517690D01*
X289090Y514475D01*
X290830Y510274D01*
X290830Y505726D01*
X289090Y501525D01*
X285875Y498310D01*
X281674Y496570D01*
X277126Y496570D01*
G37*
G36*
X23126Y496570D02*
X18925Y498310D01*
X15710Y501525D01*
X13970Y505726D01*
X13970Y510274D01*
X15710Y514475D01*
X18925Y517690D01*
X23126Y519430D01*
X27674Y519430D01*
X31875Y517690D01*
X35090Y514475D01*
X36830Y510274D01*
X36830Y505726D01*
X35090Y501525D01*
X31875Y498310D01*
X27674Y496570D01*
X23126Y496570D01*
G37*
G36*
X277126Y471170D02*
X272925Y472910D01*
X269710Y476125D01*
X267970Y480326D01*
X267970Y484874D01*
X269710Y489075D01*
X272925Y492290D01*
X277126Y494030D01*
X281674Y494030D01*
X285875Y492290D01*
X289090Y489075D01*
X290830Y484874D01*
X290830Y480326D01*
X289090Y476125D01*
X285875Y472910D01*
X281674Y471170D01*
X277126Y471170D01*
G37*
G36*
X23126Y471170D02*
X18925Y472910D01*
X15710Y476125D01*
X13970Y480326D01*
X13970Y484874D01*
X15710Y489075D01*
X18925Y492290D01*
X23126Y494030D01*
X27674Y494030D01*
X31875Y492290D01*
X35090Y489075D01*
X36830Y484874D01*
X36830Y480326D01*
X35090Y476125D01*
X31875Y472910D01*
X27674Y471170D01*
X23126Y471170D01*
G37*
G36*
X231099Y405638D02*
X227738Y407030D01*
X186936Y447833D01*
X186683Y448000D01*
X186397Y448056D01*
X32736Y448056D01*
X32439Y447996D01*
X32197Y447833D01*
X31875Y447510D01*
X27674Y445770D01*
X23126Y445770D01*
X18925Y447510D01*
X15710Y450725D01*
X13970Y454926D01*
X13970Y459474D01*
X15710Y463675D01*
X18925Y466890D01*
X23126Y468630D01*
X27674Y468630D01*
X31875Y466890D01*
X32197Y466567D01*
X32450Y466400D01*
X32736Y466344D01*
X192319Y466344D01*
X195680Y464952D01*
X236482Y424149D01*
X236735Y423982D01*
X237021Y423926D01*
X269270Y423926D01*
X269567Y423986D01*
X269817Y424158D01*
X269981Y424413D01*
X270032Y424712D01*
X269962Y425007D01*
X269809Y425227D01*
X269710Y425325D01*
X267970Y429526D01*
X267970Y434074D01*
X269710Y438275D01*
X272925Y441490D01*
X277126Y443230D01*
X281674Y443230D01*
X285875Y441490D01*
X289090Y438275D01*
X290830Y434074D01*
X290830Y429526D01*
X289090Y425325D01*
X288991Y425227D01*
X288824Y424974D01*
X288768Y424676D01*
X288833Y424380D01*
X289009Y424132D01*
X289267Y423973D01*
X289530Y423926D01*
X309079Y423926D01*
X309376Y423986D01*
X309618Y424149D01*
X363120Y477652D01*
X366481Y479044D01*
X370119Y479044D01*
X373480Y477652D01*
X376052Y475080D01*
X377444Y471719D01*
X377444Y468081D01*
X376052Y464720D01*
X318362Y407030D01*
X315001Y405638D01*
X231099Y405638D01*
G37*
G36*
X277126Y445770D02*
X272925Y447510D01*
X269710Y450725D01*
X267970Y454926D01*
X267970Y459474D01*
X269710Y463675D01*
X272925Y466890D01*
X277126Y468630D01*
X281674Y468630D01*
X285875Y466890D01*
X289090Y463675D01*
X290830Y459474D01*
X290830Y454926D01*
X289090Y450725D01*
X285875Y447510D01*
X281674Y445770D01*
X277126Y445770D01*
G37*
G36*
X510357Y412750D02*
X504755Y415070D01*
X500468Y419357D01*
X498148Y424959D01*
X498148Y431021D01*
X500468Y436623D01*
X504755Y440910D01*
X510357Y443230D01*
X516419Y443230D01*
X522021Y440910D01*
X526308Y436623D01*
X528628Y431021D01*
X528628Y424959D01*
X526308Y419357D01*
X522021Y415070D01*
X516419Y412750D01*
X510357Y412750D01*
G37*
G36*
X573857Y412750D02*
X568255Y415070D01*
X563968Y419357D01*
X561648Y424959D01*
X561648Y431021D01*
X563968Y436623D01*
X568255Y440910D01*
X573857Y443230D01*
X579919Y443230D01*
X585521Y440910D01*
X589808Y436623D01*
X592128Y431021D01*
X592128Y424959D01*
X589808Y419357D01*
X585521Y415070D01*
X579919Y412750D01*
X573857Y412750D01*
G37*
G36*
X23126Y420370D02*
X18925Y422110D01*
X15710Y425325D01*
X13970Y429526D01*
X13970Y434074D01*
X15710Y438275D01*
X18925Y441490D01*
X23126Y443230D01*
X27674Y443230D01*
X31875Y441490D01*
X35090Y438275D01*
X36830Y434074D01*
X36830Y429526D01*
X35090Y425325D01*
X31875Y422110D01*
X27674Y420370D01*
X23126Y420370D01*
G37*
G36*
X542107Y400050D02*
X536505Y402370D01*
X532218Y406657D01*
X529898Y412259D01*
X529898Y418321D01*
X532218Y423923D01*
X536505Y428210D01*
X542107Y430530D01*
X548169Y430530D01*
X553771Y428210D01*
X558058Y423923D01*
X560378Y418321D01*
X560378Y412259D01*
X558058Y406657D01*
X553771Y402370D01*
X548169Y400050D01*
X542107Y400050D01*
G37*
G36*
X478607Y400050D02*
X473005Y402370D01*
X468718Y406657D01*
X466398Y412259D01*
X466398Y418321D01*
X468718Y423923D01*
X473005Y428210D01*
X478607Y430530D01*
X484669Y430530D01*
X490271Y428210D01*
X494558Y423923D01*
X496878Y418321D01*
X496878Y412259D01*
X494558Y406657D01*
X490271Y402370D01*
X484669Y400050D01*
X478607Y400050D01*
G37*
G36*
X605607Y400050D02*
X600005Y402370D01*
X595718Y406657D01*
X593398Y412259D01*
X593398Y418321D01*
X595718Y423923D01*
X600005Y428210D01*
X605607Y430530D01*
X611669Y430530D01*
X617271Y428210D01*
X621558Y423923D01*
X623878Y418321D01*
X623878Y412259D01*
X621558Y406657D01*
X617271Y402370D01*
X611669Y400050D01*
X605607Y400050D01*
G37*
G36*
X510357Y349250D02*
X504755Y351570D01*
X500468Y355857D01*
X498148Y361459D01*
X498148Y367521D01*
X500468Y373123D01*
X504755Y377410D01*
X510357Y379730D01*
X516419Y379730D01*
X522021Y377410D01*
X526308Y373123D01*
X528628Y367521D01*
X528628Y361459D01*
X526308Y355857D01*
X522021Y351570D01*
X516419Y349250D01*
X510357Y349250D01*
G37*
G36*
X561648Y365252D02*
X561648Y367521D01*
X563968Y373123D01*
X568255Y377410D01*
X573857Y379730D01*
X576126Y379730D01*
X576126Y365252D01*
X561648Y365252D01*
G37*
G36*
X577650Y365252D02*
X577650Y379730D01*
X579919Y379730D01*
X585521Y377410D01*
X589808Y373123D01*
X592128Y367521D01*
X592128Y365252D01*
X577650Y365252D01*
G37*
G36*
X593398Y352552D02*
X593398Y354821D01*
X595718Y360423D01*
X600005Y364710D01*
X605607Y367030D01*
X607876Y367030D01*
X607876Y352552D01*
X593398Y352552D01*
G37*
G36*
X542107Y336550D02*
X536505Y338870D01*
X532218Y343157D01*
X529898Y348759D01*
X529898Y354821D01*
X532218Y360423D01*
X536505Y364710D01*
X542107Y367030D01*
X548169Y367030D01*
X553771Y364710D01*
X558058Y360423D01*
X560378Y354821D01*
X560378Y348759D01*
X558058Y343157D01*
X553771Y338870D01*
X548169Y336550D01*
X542107Y336550D01*
G37*
G36*
X609400Y336550D02*
X609400Y367030D01*
X611669Y367030D01*
X617271Y364710D01*
X621558Y360423D01*
X623887Y354800D01*
X624056Y354549D01*
X624310Y354383D01*
X624591Y354330D01*
X636578Y354330D01*
X636578Y339852D01*
X622100Y339852D01*
X622100Y341860D01*
X622040Y342157D01*
X621868Y342407D01*
X621613Y342571D01*
X621314Y342621D01*
X621019Y342552D01*
X620799Y342399D01*
X617271Y338870D01*
X611669Y336550D01*
X609400Y336550D01*
G37*
G36*
X577650Y349250D02*
X577650Y363728D01*
X592128Y363728D01*
X592128Y361459D01*
X589808Y355857D01*
X585521Y351570D01*
X579919Y349250D01*
X577650Y349250D01*
G37*
G36*
X573857Y349250D02*
X568255Y351570D01*
X563968Y355857D01*
X561648Y361459D01*
X561648Y363728D01*
X576126Y363728D01*
X576126Y349250D01*
X573857Y349250D01*
G37*
G36*
X605607Y336550D02*
X600005Y338870D01*
X595718Y343157D01*
X593398Y348759D01*
X593398Y351028D01*
X607876Y351028D01*
X607876Y336550D01*
X605607Y336550D01*
G37*
G36*
X623588Y323850D02*
X622100Y325338D01*
X622100Y338328D01*
X636578Y338328D01*
X636578Y323850D01*
X623588Y323850D01*
G37*
G36*
X510357Y222250D02*
X504755Y224570D01*
X500468Y228857D01*
X498148Y234459D01*
X498148Y240521D01*
X500468Y246123D01*
X504755Y250410D01*
X510357Y252730D01*
X516419Y252730D01*
X522021Y250410D01*
X526308Y246123D01*
X528628Y240521D01*
X528628Y234459D01*
X526308Y228857D01*
X522021Y224570D01*
X516419Y222250D01*
X510357Y222250D01*
G37*
G36*
X573857Y222250D02*
X568255Y224570D01*
X563968Y228857D01*
X561648Y234459D01*
X561648Y240521D01*
X563968Y246123D01*
X568255Y250410D01*
X573857Y252730D01*
X579919Y252730D01*
X585521Y250410D01*
X589808Y246123D01*
X592128Y240521D01*
X592128Y234459D01*
X589808Y228857D01*
X585521Y224570D01*
X579919Y222250D01*
X573857Y222250D01*
G37*
G36*
X446857Y222250D02*
X441255Y224570D01*
X436968Y228857D01*
X434648Y234459D01*
X434648Y240521D01*
X436968Y246123D01*
X441255Y250410D01*
X446857Y252730D01*
X452919Y252730D01*
X458521Y250410D01*
X462808Y246123D01*
X465128Y240521D01*
X465128Y234459D01*
X462808Y228857D01*
X458521Y224570D01*
X452919Y222250D01*
X446857Y222250D01*
G37*
G36*
X542107Y209550D02*
X536505Y211870D01*
X532218Y216157D01*
X529898Y221759D01*
X529898Y227821D01*
X532218Y233423D01*
X536505Y237710D01*
X542107Y240030D01*
X548169Y240030D01*
X553771Y237710D01*
X558058Y233423D01*
X560378Y227821D01*
X560378Y221759D01*
X558058Y216157D01*
X553771Y211870D01*
X548169Y209550D01*
X542107Y209550D01*
G37*
G36*
X478607Y209550D02*
X473005Y211870D01*
X468718Y216157D01*
X466398Y221759D01*
X466398Y227821D01*
X468718Y233423D01*
X473005Y237710D01*
X478607Y240030D01*
X484669Y240030D01*
X490271Y237710D01*
X494558Y233423D01*
X496878Y227821D01*
X496878Y221759D01*
X494558Y216157D01*
X490271Y211870D01*
X484669Y209550D01*
X478607Y209550D01*
G37*
G36*
X605607Y209550D02*
X600005Y211870D01*
X595718Y216157D01*
X593398Y221759D01*
X593398Y227821D01*
X595718Y233423D01*
X600005Y237710D01*
X605607Y240030D01*
X611669Y240030D01*
X617271Y237710D01*
X621558Y233423D01*
X623878Y227821D01*
X623878Y221759D01*
X621558Y216157D01*
X617271Y211870D01*
X611669Y209550D01*
X605607Y209550D01*
G37*
G36*
X446857Y158750D02*
X441255Y161070D01*
X436968Y165357D01*
X434648Y170959D01*
X434648Y177021D01*
X436968Y182623D01*
X441255Y186910D01*
X446857Y189230D01*
X452919Y189230D01*
X458521Y186910D01*
X462808Y182623D01*
X465128Y177021D01*
X465128Y170959D01*
X462808Y165357D01*
X458521Y161070D01*
X452919Y158750D01*
X446857Y158750D01*
G37*
G36*
X510357Y158750D02*
X504755Y161070D01*
X500468Y165357D01*
X498148Y170959D01*
X498148Y177021D01*
X500468Y182623D01*
X504755Y186910D01*
X510357Y189230D01*
X516419Y189230D01*
X522021Y186910D01*
X526308Y182623D01*
X528628Y177021D01*
X528628Y170959D01*
X526308Y165357D01*
X522021Y161070D01*
X516419Y158750D01*
X510357Y158750D01*
G37*
G36*
X561648Y174752D02*
X561648Y177021D01*
X563968Y182623D01*
X568255Y186910D01*
X573857Y189230D01*
X576126Y189230D01*
X576126Y174752D01*
X561648Y174752D01*
G37*
G36*
X577650Y174752D02*
X577650Y189230D01*
X579919Y189230D01*
X585521Y186910D01*
X589808Y182623D01*
X592128Y177021D01*
X592128Y174752D01*
X577650Y174752D01*
G37*
G36*
X478607Y146050D02*
X473005Y148370D01*
X468718Y152657D01*
X466398Y158259D01*
X466398Y164321D01*
X468718Y169923D01*
X473005Y174210D01*
X478607Y176530D01*
X484669Y176530D01*
X490271Y174210D01*
X494558Y169923D01*
X496878Y164321D01*
X496878Y158259D01*
X494558Y152657D01*
X490271Y148370D01*
X484669Y146050D01*
X478607Y146050D01*
G37*
G36*
X542107Y146050D02*
X536505Y148370D01*
X532218Y152657D01*
X529898Y158259D01*
X529898Y164321D01*
X532218Y169923D01*
X536505Y174210D01*
X542107Y176530D01*
X548169Y176530D01*
X553771Y174210D01*
X558058Y169923D01*
X560378Y164321D01*
X560378Y158259D01*
X558058Y152657D01*
X553771Y148370D01*
X548169Y146050D01*
X542107Y146050D01*
G37*
G36*
X593398Y162052D02*
X593398Y164321D01*
X595718Y169923D01*
X600005Y174210D01*
X605607Y176530D01*
X607876Y176530D01*
X607876Y162052D01*
X593398Y162052D01*
G37*
G36*
X609400Y146050D02*
X609400Y176530D01*
X611669Y176530D01*
X617271Y174210D01*
X621558Y169923D01*
X623887Y164300D01*
X624056Y164049D01*
X624310Y163883D01*
X624591Y163830D01*
X636578Y163830D01*
X636578Y149352D01*
X622100Y149352D01*
X622100Y151360D01*
X622040Y151657D01*
X621868Y151907D01*
X621613Y152071D01*
X621314Y152121D01*
X621019Y152052D01*
X620799Y151899D01*
X617271Y148370D01*
X611669Y146050D01*
X609400Y146050D01*
G37*
G36*
X577650Y158750D02*
X577650Y173228D01*
X592128Y173228D01*
X592128Y170959D01*
X589808Y165357D01*
X585521Y161070D01*
X579919Y158750D01*
X577650Y158750D01*
G37*
G36*
X573857Y158750D02*
X568255Y161070D01*
X563968Y165357D01*
X561648Y170959D01*
X561648Y173228D01*
X576126Y173228D01*
X576126Y158750D01*
X573857Y158750D01*
G37*
G36*
X605607Y146050D02*
X600005Y148370D01*
X595718Y152657D01*
X593398Y158259D01*
X593398Y160528D01*
X607876Y160528D01*
X607876Y146050D01*
X605607Y146050D01*
G37*
G36*
X623588Y133350D02*
X622100Y134838D01*
X622100Y147828D01*
X636578Y147828D01*
X636578Y133350D01*
X623588Y133350D01*
G37*
G36*
X340688Y24753D02*
X340556Y24765D01*
X339472Y24765D01*
X337292Y25349D01*
X337227Y25364D01*
X333858Y25958D01*
X325907Y30548D01*
X323708Y33169D01*
X323663Y33218D01*
X322067Y34814D01*
X321525Y35752D01*
X321449Y35861D01*
X320005Y37582D01*
X319237Y39692D01*
X319181Y39813D01*
X318639Y40751D01*
X318055Y42932D01*
X318035Y42995D01*
X316865Y46209D01*
X316865Y55391D01*
X318035Y58605D01*
X318055Y58668D01*
X318639Y60849D01*
X319181Y61787D01*
X319237Y61908D01*
X320005Y64018D01*
X321449Y65739D01*
X321525Y65848D01*
X322067Y66786D01*
X323663Y68382D01*
X323708Y68431D01*
X325907Y71052D01*
X333858Y75642D01*
X337227Y76236D01*
X337292Y76251D01*
X339472Y76835D01*
X340556Y76835D01*
X340688Y76847D01*
X342900Y77237D01*
X345112Y76847D01*
X345244Y76835D01*
X346328Y76835D01*
X348508Y76251D01*
X348573Y76236D01*
X351942Y75642D01*
X359893Y71052D01*
X362092Y68431D01*
X362137Y68382D01*
X363733Y66786D01*
X364275Y65848D01*
X364351Y65739D01*
X365795Y64018D01*
X366563Y61908D01*
X366619Y61787D01*
X367161Y60849D01*
X367745Y58668D01*
X367765Y58605D01*
X368935Y55391D01*
X368935Y46209D01*
X367765Y42995D01*
X367745Y42932D01*
X367161Y40751D01*
X366619Y39813D01*
X366563Y39692D01*
X365795Y37582D01*
X364351Y35861D01*
X364275Y35752D01*
X363733Y34814D01*
X362137Y33218D01*
X362092Y33169D01*
X359893Y30548D01*
X351942Y25958D01*
X348573Y25364D01*
X348508Y25349D01*
X346328Y24765D01*
X345244Y24765D01*
X345112Y24753D01*
X342900Y24363D01*
X340688Y24753D01*
G37*
G36*
X446857Y31750D02*
X441255Y34070D01*
X436968Y38357D01*
X434648Y43959D01*
X434648Y50021D01*
X436968Y55623D01*
X441255Y59910D01*
X446857Y62230D01*
X452919Y62230D01*
X458521Y59910D01*
X462808Y55623D01*
X465128Y50021D01*
X465128Y43959D01*
X462808Y38357D01*
X458521Y34070D01*
X452919Y31750D01*
X446857Y31750D01*
G37*
G36*
X510357Y31750D02*
X504755Y34070D01*
X500468Y38357D01*
X498148Y43959D01*
X498148Y50021D01*
X500468Y55623D01*
X504755Y59910D01*
X510357Y62230D01*
X516419Y62230D01*
X522021Y59910D01*
X526308Y55623D01*
X528628Y50021D01*
X528628Y43959D01*
X526308Y38357D01*
X522021Y34070D01*
X516419Y31750D01*
X510357Y31750D01*
G37*
G36*
X573857Y31750D02*
X568255Y34070D01*
X563968Y38357D01*
X561648Y43959D01*
X561648Y50021D01*
X563968Y55623D01*
X568255Y59910D01*
X573857Y62230D01*
X579919Y62230D01*
X585521Y59910D01*
X589808Y55623D01*
X592128Y50021D01*
X592128Y43959D01*
X589808Y38357D01*
X585521Y34070D01*
X579919Y31750D01*
X573857Y31750D01*
G37*
G36*
X542107Y19050D02*
X536505Y21370D01*
X532218Y25657D01*
X529898Y31259D01*
X529898Y37321D01*
X532218Y42923D01*
X536505Y47210D01*
X542107Y49530D01*
X548169Y49530D01*
X553771Y47210D01*
X558058Y42923D01*
X560378Y37321D01*
X560378Y31259D01*
X558058Y25657D01*
X553771Y21370D01*
X548169Y19050D01*
X542107Y19050D01*
G37*
G36*
X605607Y19050D02*
X600005Y21370D01*
X595718Y25657D01*
X593398Y31259D01*
X593398Y37321D01*
X595718Y42923D01*
X600005Y47210D01*
X605607Y49530D01*
X611669Y49530D01*
X617271Y47210D01*
X621558Y42923D01*
X623878Y37321D01*
X623878Y31259D01*
X621558Y25657D01*
X617271Y21370D01*
X611669Y19050D01*
X605607Y19050D01*
G37*
G36*
X478607Y19050D02*
X473005Y21370D01*
X468718Y25657D01*
X466398Y31259D01*
X466398Y37321D01*
X468718Y42923D01*
X473005Y47210D01*
X478607Y49530D01*
X484669Y49530D01*
X490271Y47210D01*
X494558Y42923D01*
X496878Y37321D01*
X496878Y31259D01*
X494558Y25657D01*
X490271Y21370D01*
X484669Y19050D01*
X478607Y19050D01*
G37*
%LPD*%
D10*
X38100Y1046480D02*
X38100Y1061720D01*
X63500Y1061720D02*
X63500Y1046480D01*
X88900Y1046480D02*
X88900Y1061720D01*
X114300Y1061720D02*
X114300Y1046480D01*
D11*
X637340Y148590D03*
D12*
X608638Y161290D03*
X576888Y173990D03*
X545138Y161290D03*
X513388Y173990D03*
X481638Y161290D03*
X449888Y173990D03*
X608638Y34290D03*
X576888Y46990D03*
X545138Y34290D03*
X513388Y46990D03*
X481638Y34290D03*
X449888Y46990D03*
D11*
X637340Y339090D03*
D12*
X608638Y351790D03*
X576888Y364490D03*
X545138Y351790D03*
X513388Y364490D03*
X481638Y351790D03*
X449888Y364490D03*
X608638Y224790D03*
X576888Y237490D03*
X545138Y224790D03*
X513388Y237490D03*
X481638Y224790D03*
X449888Y237490D03*
D11*
X637340Y529590D03*
D12*
X608638Y542290D03*
X576888Y554990D03*
X545138Y542290D03*
X513388Y554990D03*
X481638Y542290D03*
X449888Y554990D03*
X608638Y415290D03*
X576888Y427990D03*
X545138Y415290D03*
X513388Y427990D03*
X481638Y415290D03*
X449888Y427990D03*
D11*
X637340Y720090D03*
D12*
X608638Y732790D03*
X576888Y745490D03*
X545138Y732790D03*
X513388Y745490D03*
X481638Y732790D03*
X449888Y745490D03*
X608638Y605790D03*
X576888Y618490D03*
X545138Y605790D03*
X513388Y618490D03*
X481638Y605790D03*
X449888Y618490D03*
D11*
X637340Y910590D03*
D12*
X608638Y923290D03*
X576888Y935990D03*
X545138Y923290D03*
X513388Y935990D03*
X481638Y923290D03*
X449888Y935990D03*
X608638Y796290D03*
X576888Y808990D03*
X545138Y796290D03*
X513388Y808990D03*
X481638Y796290D03*
X449888Y808990D03*
D11*
X637340Y1101090D03*
D12*
X608638Y1113790D03*
X576888Y1126490D03*
X545138Y1113790D03*
X513388Y1126490D03*
X481638Y1113790D03*
X449888Y1126490D03*
X608638Y986790D03*
X576888Y999490D03*
X545138Y986790D03*
X513388Y999490D03*
X481638Y986790D03*
X449888Y999490D03*
D13*
X25400Y660400D03*
D14*
X25400Y635000D03*
X25400Y609600D03*
X25400Y584200D03*
X25400Y558800D03*
X25400Y533400D03*
X25400Y508000D03*
X25400Y482600D03*
X25400Y457200D03*
X25400Y431800D03*
D13*
X279400Y660400D03*
D14*
X279400Y635000D03*
X279400Y609600D03*
X279400Y584200D03*
X279400Y558800D03*
X279400Y533400D03*
X279400Y508000D03*
X279400Y482600D03*
X279400Y457200D03*
X279400Y431800D03*
D15*
X54776Y620014D02*
X35814Y620014D01*
X54776Y620014D02*
X54776Y623527D01*
X63500Y1054100D02*
X63500Y1066800D01*
X76200Y1079500D01*
X76200Y1117600D01*
D16*
X76200Y1270000D03*
D15*
X76200Y1193800D02*
X76200Y1117600D01*
X76200Y1193800D02*
X76200Y1270000D01*
D16*
X76200Y1193800D03*
X76200Y1117600D03*
D17*
X449888Y364490D02*
X462588Y351790D01*
X481638Y351790D01*
X462588Y732790D02*
X449888Y745490D01*
X462588Y732790D02*
X481638Y732790D01*
X462588Y923290D02*
X449888Y935990D01*
X462588Y923290D02*
X481638Y923290D01*
X481638Y1113790D02*
X462588Y1113790D01*
X449888Y1126490D01*
X449888Y745490D02*
X434140Y745490D01*
X434140Y935990D02*
X449888Y935990D01*
X437188Y935990D01*
X43902Y635000D02*
X25400Y635000D01*
X154392Y745490D02*
X449888Y745490D01*
X154392Y745490D02*
X66401Y657499D01*
X43902Y635000D01*
X434140Y554990D02*
X449888Y554990D01*
X437188Y935990D02*
X425758Y947420D01*
X425758Y1102360D01*
X449888Y1126490D01*
X449888Y745490D02*
X427028Y745490D01*
X425758Y744220D01*
X425758Y927608D01*
X434140Y935990D01*
X427028Y554990D02*
X449888Y554990D01*
X427028Y554990D02*
X425758Y553720D01*
X425758Y737108D01*
X434140Y745490D01*
X434140Y554990D02*
X425758Y546608D01*
X425758Y388620D01*
X449888Y364490D01*
X425758Y546608D02*
X425758Y947420D01*
X462588Y542290D02*
X481638Y542290D01*
X462588Y542290D02*
X449888Y554990D01*
X63500Y660400D02*
X63500Y1054100D01*
X63500Y660400D02*
X66401Y657499D01*
D16*
X88900Y1244600D03*
D15*
X88900Y1168400D01*
D16*
X88900Y1168400D03*
D15*
X88900Y1091184D01*
X88900Y1054100D01*
D16*
X88900Y1091184D03*
D15*
X25400Y457200D02*
X190500Y457200D01*
D16*
X368300Y469900D03*
D15*
X232918Y414782D02*
X190500Y457200D01*
X232918Y414782D02*
X313182Y414782D01*
X368300Y469900D01*
M02*
