G04 EAGLE Gerber RS-274X export*
G75*
%MOMM*%
%FSLAX34Y34*%
%LPD*%
%IN*%
%IPPOS*%
%AMOC8*
5,1,8,0,0,1.08239X$1,22.5*%
G01*
G04 Define Apertures*
%ADD10C,0.254000*%
D10*
X0Y0D02*
X654104Y0D01*
X654104Y1406400D01*
X0Y1406400D01*
X0Y0D01*
X66675Y1358380D02*
X66607Y1357343D01*
X66471Y1356313D01*
X66269Y1355293D01*
X66000Y1354289D01*
X65665Y1353305D01*
X65268Y1352345D01*
X64808Y1351413D01*
X64288Y1350512D01*
X63711Y1349648D01*
X63078Y1348824D01*
X62393Y1348042D01*
X61658Y1347307D01*
X60876Y1346622D01*
X60052Y1345989D01*
X59188Y1345412D01*
X58287Y1344892D01*
X57355Y1344432D01*
X56395Y1344035D01*
X55411Y1343700D01*
X54407Y1343431D01*
X53387Y1343229D01*
X52357Y1343093D01*
X51320Y1343025D01*
X50280Y1343025D01*
X49243Y1343093D01*
X48213Y1343229D01*
X47193Y1343431D01*
X46189Y1343700D01*
X45205Y1344035D01*
X44245Y1344432D01*
X43313Y1344892D01*
X42412Y1345412D01*
X41548Y1345989D01*
X40724Y1346622D01*
X39942Y1347307D01*
X39207Y1348042D01*
X38522Y1348824D01*
X37889Y1349648D01*
X37312Y1350512D01*
X36792Y1351413D01*
X36332Y1352345D01*
X35935Y1353305D01*
X35600Y1354289D01*
X35331Y1355293D01*
X35129Y1356313D01*
X34993Y1357343D01*
X34925Y1358380D01*
X34925Y1359420D01*
X34993Y1360457D01*
X35129Y1361487D01*
X35331Y1362507D01*
X35600Y1363511D01*
X35935Y1364495D01*
X36332Y1365455D01*
X36792Y1366387D01*
X37312Y1367288D01*
X37889Y1368152D01*
X38522Y1368976D01*
X39207Y1369758D01*
X39942Y1370493D01*
X40724Y1371178D01*
X41548Y1371811D01*
X42412Y1372388D01*
X43313Y1372908D01*
X44245Y1373368D01*
X45205Y1373765D01*
X46189Y1374100D01*
X47193Y1374369D01*
X48213Y1374571D01*
X49243Y1374707D01*
X50280Y1374775D01*
X51320Y1374775D01*
X52357Y1374707D01*
X53387Y1374571D01*
X54407Y1374369D01*
X55411Y1374100D01*
X56395Y1373765D01*
X57355Y1373368D01*
X58287Y1372908D01*
X59188Y1372388D01*
X60052Y1371811D01*
X60876Y1371178D01*
X61658Y1370493D01*
X62393Y1369758D01*
X63078Y1368976D01*
X63711Y1368152D01*
X64288Y1367288D01*
X64808Y1366387D01*
X65268Y1365455D01*
X65665Y1364495D01*
X66000Y1363511D01*
X66269Y1362507D01*
X66471Y1361487D01*
X66607Y1360457D01*
X66675Y1359420D01*
X66675Y1358380D01*
X625475Y1358380D02*
X625407Y1357343D01*
X625271Y1356313D01*
X625069Y1355293D01*
X624800Y1354289D01*
X624465Y1353305D01*
X624068Y1352345D01*
X623608Y1351413D01*
X623088Y1350512D01*
X622511Y1349648D01*
X621878Y1348824D01*
X621193Y1348042D01*
X620458Y1347307D01*
X619676Y1346622D01*
X618852Y1345989D01*
X617988Y1345412D01*
X617087Y1344892D01*
X616155Y1344432D01*
X615195Y1344035D01*
X614211Y1343700D01*
X613207Y1343431D01*
X612187Y1343229D01*
X611157Y1343093D01*
X610120Y1343025D01*
X609080Y1343025D01*
X608043Y1343093D01*
X607013Y1343229D01*
X605993Y1343431D01*
X604989Y1343700D01*
X604005Y1344035D01*
X603045Y1344432D01*
X602113Y1344892D01*
X601212Y1345412D01*
X600348Y1345989D01*
X599524Y1346622D01*
X598742Y1347307D01*
X598007Y1348042D01*
X597322Y1348824D01*
X596689Y1349648D01*
X596112Y1350512D01*
X595592Y1351413D01*
X595132Y1352345D01*
X594735Y1353305D01*
X594400Y1354289D01*
X594131Y1355293D01*
X593929Y1356313D01*
X593793Y1357343D01*
X593725Y1358380D01*
X593725Y1359420D01*
X593793Y1360457D01*
X593929Y1361487D01*
X594131Y1362507D01*
X594400Y1363511D01*
X594735Y1364495D01*
X595132Y1365455D01*
X595592Y1366387D01*
X596112Y1367288D01*
X596689Y1368152D01*
X597322Y1368976D01*
X598007Y1369758D01*
X598742Y1370493D01*
X599524Y1371178D01*
X600348Y1371811D01*
X601212Y1372388D01*
X602113Y1372908D01*
X603045Y1373368D01*
X604005Y1373765D01*
X604989Y1374100D01*
X605993Y1374369D01*
X607013Y1374571D01*
X608043Y1374707D01*
X609080Y1374775D01*
X610120Y1374775D01*
X611157Y1374707D01*
X612187Y1374571D01*
X613207Y1374369D01*
X614211Y1374100D01*
X615195Y1373765D01*
X616155Y1373368D01*
X617087Y1372908D01*
X617988Y1372388D01*
X618852Y1371811D01*
X619676Y1371178D01*
X620458Y1370493D01*
X621193Y1369758D01*
X621878Y1368976D01*
X622511Y1368152D01*
X623088Y1367288D01*
X623608Y1366387D01*
X624068Y1365455D01*
X624465Y1364495D01*
X624800Y1363511D01*
X625069Y1362507D01*
X625271Y1361487D01*
X625407Y1360457D01*
X625475Y1359420D01*
X625475Y1358380D01*
X358775Y50280D02*
X358707Y49243D01*
X358571Y48213D01*
X358369Y47193D01*
X358100Y46189D01*
X357765Y45205D01*
X357368Y44245D01*
X356908Y43313D01*
X356388Y42412D01*
X355811Y41548D01*
X355178Y40724D01*
X354493Y39942D01*
X353758Y39207D01*
X352976Y38522D01*
X352152Y37889D01*
X351288Y37312D01*
X350387Y36792D01*
X349455Y36332D01*
X348495Y35935D01*
X347511Y35600D01*
X346507Y35331D01*
X345487Y35129D01*
X344457Y34993D01*
X343420Y34925D01*
X342380Y34925D01*
X341343Y34993D01*
X340313Y35129D01*
X339293Y35331D01*
X338289Y35600D01*
X337305Y35935D01*
X336345Y36332D01*
X335413Y36792D01*
X334512Y37312D01*
X333648Y37889D01*
X332824Y38522D01*
X332042Y39207D01*
X331307Y39942D01*
X330622Y40724D01*
X329989Y41548D01*
X329412Y42412D01*
X328892Y43313D01*
X328432Y44245D01*
X328035Y45205D01*
X327700Y46189D01*
X327431Y47193D01*
X327229Y48213D01*
X327093Y49243D01*
X327025Y50280D01*
X327025Y51320D01*
X327093Y52357D01*
X327229Y53387D01*
X327431Y54407D01*
X327700Y55411D01*
X328035Y56395D01*
X328432Y57355D01*
X328892Y58287D01*
X329412Y59188D01*
X329989Y60052D01*
X330622Y60876D01*
X331307Y61658D01*
X332042Y62393D01*
X332824Y63078D01*
X333648Y63711D01*
X334512Y64288D01*
X335413Y64808D01*
X336345Y65268D01*
X337305Y65665D01*
X338289Y66000D01*
X339293Y66269D01*
X340313Y66471D01*
X341343Y66607D01*
X342380Y66675D01*
X343420Y66675D01*
X344457Y66607D01*
X345487Y66471D01*
X346507Y66269D01*
X347511Y66000D01*
X348495Y65665D01*
X349455Y65268D01*
X350387Y64808D01*
X351288Y64288D01*
X352152Y63711D01*
X352976Y63078D01*
X353758Y62393D01*
X354493Y61658D01*
X355178Y60876D01*
X355811Y60052D01*
X356388Y59188D01*
X356908Y58287D01*
X357368Y57355D01*
X357765Y56395D01*
X358100Y55411D01*
X358369Y54407D01*
X358571Y53387D01*
X358707Y52357D01*
X358775Y51320D01*
X358775Y50280D01*
M02*
