M48
;GenerationSoftware,Autodesk,EAGLE,9.7.0*%
;CreationDate,2021-03-03T04:37:22Z*%
FMAT,2
ICI,OFF
METRIC,TZ,000.000
T6C0.350
T5C0.650
T4C1.016
T3C1.499
T2C1.524
T1C3.175
%
G90
M71
T1
X34290Y5080
X5080Y135890
X60960Y135890
T2
X63734Y110109
X63734Y91059
X63734Y72009
X63734Y52959
X63734Y33909
X63734Y14859
T3
X60864Y98679
X60864Y41529
X51339Y112649
X54514Y111379
X57689Y112649
X57689Y99949
X60864Y16129
X57689Y17399
X54514Y16129
X51339Y17399
X48164Y16129
X44989Y17399
X60864Y3429
X57689Y4699
X54514Y3429
X51339Y4699
X48164Y3429
X44989Y4699
X54514Y98679
X60864Y35179
X57689Y36449
X54514Y35179
X51339Y36449
X48164Y35179
X44989Y36449
X60864Y22479
X57689Y23749
X54514Y22479
X51339Y23749
X48164Y22479
X44989Y23749
X51339Y99949
X60864Y54229
X57689Y55499
X54514Y54229
X51339Y55499
X48164Y54229
X44989Y55499
X48164Y111379
X57689Y42799
X54514Y41529
X51339Y42799
X48164Y41529
X44989Y42799
X48164Y98679
X60864Y73279
X57689Y74549
X44989Y112649
X51339Y74549
X48164Y73279
X44989Y74549
X60864Y60579
X57689Y61849
X54514Y60579
X51339Y61849
X48164Y60579
X44989Y61849
X44989Y99949
X60864Y92329
X57689Y93599
X54514Y92329
X51339Y93599
X48164Y92329
X44989Y93599
X60864Y79629
X57689Y80899
X54514Y79629
X51339Y80899
X48164Y79629
X44989Y80899
X54514Y73279
X60864Y111379
T4
X11430Y105410
X8890Y105410
X6350Y105410
X3810Y105410
T5
X27940Y43180
X2540Y66040
X2540Y63500
X2540Y60960
X2540Y58420
X2540Y55880
X2540Y53340
X2540Y50800
X2540Y48260
X2540Y45720
X2540Y43180
X27940Y66040
X27940Y63500
X27940Y60960
X27940Y58420
X27940Y55880
X27940Y53340
X27940Y50800
X27940Y48260
X27940Y45720
T6
X36830Y46990
X8890Y109118
X8890Y116840
X8890Y124460
X7620Y111760
X7620Y119380
X7620Y127000
M30